<svg xmlns="http://www.w3.org/2000/svg" width="500" height="153">
  <path fill="#eb1438" fill-rule="evenodd" d="M0 67.334C0 39.966 39.48 15.604 100.863 0 51.405 15.517 20.632 37.334 20.632 61.508c0 47.089 116.88 85.271 261.064 85.271 60.386 0 115.981-6.698 160.201-17.937-46.914 14.719-110.63 23.763-180.833 23.763C116.88 152.605 0 114.435 0 67.334"/>
  <path fill="#213a8a" fill-rule="evenodd" d="M450.666 115.807h8.07v-.387c-1.983-.075-2.569-.274-2.569-1.759V98.393l-.137-.062a104.89 104.89 0 0 1-5.426 1.135v.4c.411-.026.71-.05 1.16-.05 1.334 0 1.534.411 1.534 1.559v12.199c0 1.41-.611 1.746-2.632 1.846v.387m-9.979 0h8.108v-.387c-2.358-.1-2.532-.536-2.532-2.22v-9.081l-.137-.075c-1.784.487-3.518.973-5.302 1.397v.387c.45-.05.886-.1 1.372-.1.55 0 1.198.025 1.198 1.534v5.938c0 1.996-.587 2.145-2.707 2.22zm2.12-16.166c0 .486.487 1.297 1.71 1.297 1.022 0 1.783-.561 1.783-1.297 0-.711-.76-1.31-1.783-1.31-1.198 0-1.71.823-1.71 1.31m-4.54 12.174c-1.16 1.31-2.432 2.408-4.89 2.408-2.869 0-5.226-1.946-5.226-4.89 0-3.767 3.143-4.553 4.403-4.553 1.821 0 1.983.461 2.258 1.222l.2.574c.212.561.785 1.223 1.683 1.173 1.023-.05 1.572-.537 1.572-1.123 0-.461-.449-1.26-1.472-1.796-.86-.412-2.395-.786-3.617-.786-3.692 0-7.66 2.12-7.66 6.312 0 4.041 3.656 5.7 6.388 5.7 2.769 0 4.989-1.097 6.835-4.016l-.474-.225M409.99 113.5c0 1.51-.511 1.846-2.12 1.921v.387h7.247v-.387c-1.772-.075-2.258-.486-2.258-1.335V106.9c1.297-.948 2.358-1.459 3.393-1.459 2.008 0 2.632.923 2.632 2.482v5.352c0 1.946-.898 2.07-2.158 2.145v.387h7.11v-.387c-1.684-.1-2.083-.486-2.083-1.684v-5.863c0-3.143-2.433-3.829-4.004-3.829-2.021 0-3.318.886-4.99 2.07v-2.02l-.237-.05a89.1 89.1 0 0 1-4.715 1.148v.436c.137-.05.512-.112.986-.112.548 0 1.197.037 1.197 1.646v6.337m-3.767 1.023c-2.058.05-2.12-.536-2.12-1.46v-8.769H398.7v.437c2.395.05 2.532.586 2.532 1.61v6.012c0 .848-.237 1.097-.548 1.297-.924.574-1.946.923-2.97.923-2.257 0-2.569-1.584-2.569-1.946v-8.333h-4.99v.362c1.024.05 2.121.1 2.121 1.634v6.45c0 2.706 2.67 3.317 4.067 3.317.61 0 2.257-.1 3.592-1.097l1.472-1.098v2.12l.062.05c1.61-.436 2.907-.786 4.753-1.147v-.362m-25.41-10.478c-4.577 0-7.384 2.782-7.384 5.925 0 3.455 3.081 6.087 7.485 6.087 5.201 0 7.596-3.555 7.596-6.087 0-3.705-3.218-5.925-7.696-5.925m.586 11.301c-4.104 0-4.89-4.702-4.89-6.598 0-2.67 1.884-3.992 4.03-3.992 3.143 0 4.89 2.782 4.89 5.962 0 3.655-2.284 4.628-4.03 4.628m-10.877-11.076-.312-5.75h-.71c-.275.835-1.41.835-1.585.835-.748 0-2.969-.836-6.012-.836-5.875 0-11.613 3.094-11.613 8.82 0 6.373 5.912 8.818 11.413 8.818 6.287 0 9.218-3.193 9.256-3.243l-.612-.462c-1.06.774-3.517 2.582-7.72 2.582-4.304 0-8.383-2.22-8.383-7.646 0-3.68 1.51-5.314 2.844-6.287 1.434-1.048 3.418-1.56 5.127-1.56 4.203 0 6.66 2.047 7.509 4.729h.798m-31.147.024h-3.455v-2.968l-.237-.325c-1.26 1.348-1.772 1.909-3.069 2.907-.76.561-1.51.723-1.51 1.023l.138.187h1.809v7.696c0 2.557 1.397 3.243 3.143 3.243 1.572 0 3.181-.836 4.004-1.946l-.449-.274c-.374.337-.985.898-2.083.898-1.746 0-1.746-1.51-1.746-2.308v-7.31h3.455v-.823m-10.59 7.522c-1.173 1.31-2.433 2.408-4.89 2.408-2.87 0-5.227-1.946-5.227-4.89 0-3.767 3.131-4.553 4.404-4.553 1.808 0 1.983.461 2.257 1.222l.2.574c.212.561.786 1.223 1.684 1.173 1.023-.05 1.572-.537 1.572-1.123 0-.462-.45-1.26-1.472-1.796-.861-.412-2.395-.786-3.618-.786-3.704 0-7.659 2.12-7.659 6.312 0 4.041 3.655 5.7 6.387 5.7 2.77 0 4.99-1.097 6.836-4.016l-.474-.225m-22.865 3.992h8.096v-.387c-2.358-.1-2.533-.536-2.533-2.22v-9.081l-.137-.075c-1.771.487-3.518.973-5.289 1.397v.387c.437-.05.886-.1 1.36-.1.549 0 1.197.025 1.197 1.534v5.938c0 1.996-.573 2.145-2.694 2.22zm2.12-16.166c0 .486.475 1.297 1.71 1.297 1.022 0 1.77-.561 1.77-1.297 0-.711-.748-1.31-1.77-1.31-1.198 0-1.71.823-1.71 1.31m-11.762 14.02c0 1.422-.549 1.51-2.42 1.759v.387h8.195v-.387c-1.734-.05-2.906-.15-2.906-1.92v-5.751c0-.824 1.51-2.096 2.332-2.096.811 0 1.16.886 2.358.886.81 0 1.297-.487 1.297-1.123 0-.836-.686-1.372-1.846-1.372-1.297 0-2.47.511-4.066 2.32h-.075v-2.27l-.162-.05a87.344 87.344 0 0 1-5.065 1.372v.412c.312-.05.686-.1 1.16-.1.55 0 1.198.025 1.198 1.534v6.4m-3.68-9.369h-3.455v-2.968l-.237-.325c-1.272 1.348-1.784 1.909-3.081 2.907-.749.561-1.51.723-1.51 1.023l.138.187h1.809v7.696c0 2.557 1.41 3.243 3.155 3.243 1.572 0 3.181-.836 3.992-1.946l-.437-.274c-.374.337-.997.898-2.095.898-1.734 0-1.734-1.51-1.734-2.308v-7.31h3.455v-.823m-11.55 3.48-.138-3.504h-.387c-.1.1-.261.286-.573.286-.587 0-1.647-.511-3.144-.511-3.318 0-4.79 1.684-4.79 3.118 0 1.884 1.884 2.832 4.004 3.73l1.984.848c1.085.462 1.77 1.073 1.77 1.896 0 1.447-1.608 1.859-2.768 1.859-3.343 0-3.992-2.22-4.404-3.58h-.548v3.992h.436c.212-.225.35-.312.761-.312.948-.025 2.42.461 3.967.461 2.183 0 4.952-1.073 4.952-3.293 0-1.534-1.198-2.258-2.87-3.019l-3.691-1.634c-1.273-.56-1.472-1.31-1.472-1.82 0-.662.723-1.66 2.594-1.66 1.51 0 3.044.537 3.792 3.144h.524m-20.033 8.033h8.096v-.387c-2.358-.1-2.532-.536-2.532-2.22v-9.081l-.125-.075c-1.784.487-3.53.973-5.302 1.397v.387c.45-.05.886-.1 1.373-.1.536 0 1.185.025 1.185 1.534v5.938c0 1.996-.574 2.145-2.695 2.22zm2.121-16.166c0 .486.474 1.297 1.709 1.297 1.023 0 1.771-.561 1.771-1.297 0-.711-.748-1.31-1.771-1.31-1.198 0-1.709.823-1.709 1.31m-27.106 16.166h9.705c10.466 0 13.16-5.015 13.16-8.42 0-5.726-5.426-8.52-13.634-8.52h-9.23v.487c2.631.162 3.006.411 3.006 2.307v11.352c0 1.796-.412 2.207-3.007 2.307zm6.5-14.994c0-.511 0-.998 1.608-.998 4.304 0 6.212.699 7.859 1.797 2.357 1.584 3.168 3.654 3.168 5.8 0 7.447-8.407 7.447-10.59 7.447-1.634 0-2.046-.175-2.046-1.048v-12.998m220.175-20.906c0 6.25-2.295 6.586-10.216 7.709v1.671h34.553v-1.671c-7.347-.225-12.237-.674-12.237-8.382V54.086c0-3.58 6.337-9.168 9.792-9.168s4.89 3.917 9.929 3.917c3.455 0 5.476-2.12 5.476-4.915 0-3.692-2.881-6.037-7.784-6.037-5.463 0-10.365 2.233-17.126 10.166h-.287v-9.942l-.724-.224c-7.047 2.233-14.257 4.241-21.305 6.037v1.784c1.297-.225 2.882-.449 4.89-.449 2.307 0 5.04.112 5.04 6.71v27.942m-7.934-8.944c-3.318 4.13-9.505 11.738-22.328 11.738-9.493 0-21.156-4.59-22.89-24.373h44.781c-1.584-14.632-11.812-20.445-25.346-20.445-11.514 0-29.364 6.81-29.364 27.492 0 15.867 10.94 25.035 26.919 25.035 20.731 0 29.089-15.205 30.523-18.66zM409.989 54.76c2.308-9.842 7.92-12.86 15.842-12.86 11.363 0 12.81 7.496 13.808 12.86h-29.65m-6.985-15.767h-20.008v1.684c3.592.112 6.76 1.11 6.76 3.68 0 4.029-10.216 21.467-15.118 32.195l-14.681-28.615c-.437-.898-1.298-2.57-1.298-3.917 0-2.794 3.169-3.118 6.624-3.343v-1.684h-28.216v1.684c2.882.112 5.75.773 7.921 4.129 5.177 7.933 18.998 33.866 22.453 40.802 2.308 4.802 2.594 5.251 3.892 5.251 1.01 0 2.307-2.57 3.879-5.588l18.436-35.887c3.456-6.586 4.466-8.383 9.356-8.707v-1.684m-93.928-1.11c-19.285 0-31.097 12.174-31.097 25.92 0 15.094 12.96 26.607 31.534 26.607 21.879 0 31.957-15.542 31.957-26.606 0-16.204-13.534-25.921-32.394-25.921m2.457 49.396c-17.288 0-20.594-20.57-20.594-28.84 0-11.625 7.92-17.438 16.99-17.438 13.247 0 20.594 12.187 20.594 26.046 0 15.979-9.655 20.232-16.99 20.232M270.17 54.2l-.574-15.318h-1.584c-.436.449-1.16 1.235-2.457 1.235-2.445 0-6.91-2.233-13.247-2.233-13.959 0-20.146 7.372-20.146 13.634 0 8.27 7.909 12.399 16.84 16.316l8.345 3.692c4.615 2.008 7.497 4.69 7.497 8.27 0 6.362-6.773 8.158-11.663 8.158-14.108 0-16.852-9.73-18.574-15.655H232.3v17.439h1.87c.861-1.01 1.448-1.335 3.17-1.335 4.028-.112 10.228 2.008 16.702 2.008 9.218 0 20.88-4.69 20.88-14.42 0-6.71-5.039-9.829-12.099-13.184l-15.555-7.16c-5.326-2.458-6.187-5.7-6.187-7.934 0-2.906 3.031-7.26 10.94-7.26 6.336 0 12.823 2.346 15.991 13.747h2.158M196 89.287h33.98v-1.671c-8.358-.337-10.803-1.235-10.803-7.709V13.172l-.574-.212c-7.634 1.896-15.268 3.456-22.889 4.915v1.784c1.721-.113 3.019-.225 4.89-.225 5.613 0 6.474 1.796 6.474 6.823V79.57c0 6.15-2.582 7.597-11.077 8.046v1.671m-31.609-51.404c-19.297 0-31.097 12.174-31.097 25.92 0 15.094 12.96 26.607 31.534 26.607 21.879 0 31.958-15.542 31.958-26.606 0-16.204-13.534-25.921-32.395-25.921m2.445 49.396c-17.276 0-20.582-20.57-20.582-28.84 0-11.625 7.921-17.438 16.99-17.438 13.247 0 20.581 12.187 20.581 26.046 0 15.979-9.642 20.232-16.989 20.232M43.671 17.426c11.8.449 13.82 1.784 13.82 10.054v49.633c0 7.933-1.72 9.83-13.82 10.054v2.12h48.086c31.97 0 34.852-15.417 34.852-19.67 0-11.739-11.526-17.102-24.05-19.11v-.225c6.475-1.223 19.148-3.68 19.148-16.091 0-17.326-25.197-18.886-37.72-18.886H43.67Zm28.515 35.426c13.82 0 18.424.56 23.313 1.683 7.497 1.784 14.545 5.476 14.545 14.632 0 14.981-17.413 15.992-26.919 15.992-8.357 0-10.94-.45-10.94-4.59zm0-30.062c0-1.672.287-3.244 3.156-3.244 1.447 0 3.468-.112 6.486-.112 10.216 0 25.197 2.12 25.197 15.43 0 13.297-17.139 13.522-21.168 13.522l-13.671.112V22.79"/>
</svg>
